# xmcd
#
# Track frame offsets:
#	150
#	15941
#	33416
#	49210
#	67750
#	79941
#	97312
#	116296
#	132860
#	150750
#	168521
#	183453
#	200929
#	219107
#	241415
#	251291
#	261847
#	277393
#
# Disc length: 3990 seconds
#
# Revision: 1
# Processed by: cddbd v1.5.2PL0 Copyright (c) Steve Scherf et al.
# Submitted via: audiograbber 1.83.01
#
DISCID=f60f9412
DTITLE=Various Artist - CDXMAS 1036
DYEAR=2016
DGENRE=Country Christmas
TTITLE0=Cyndi Lauper w. Alison Krauss - Hard Candy Christmas (Radio Edit)
TTITLE1=Kacey Musgraves - Present Without A Bow
TTITLE2=John Oates ft. The Time Jumpers - Santa Be Good To Me
TTITLE3=Ray Stevens - Mary and Joseph and the Baby and Me
TTITLE4=Canton Junction - A Big Ole Texas Christmas
TTITLE5=Vince Vance and The Valiants - All I Want For Christmas Is You
TTITLE6=Serene and Pearl - Bread of Life
TTITLE7=Robbie Robinson - Carolina Christmas
TTITLE8=Vince Vance and The Valiants - Christmas State Of Mind
TTITLE9=Emily Vance - Christmas Stays The Same
TTITLE10=Colby Dee - Christmas Time To Me
TTITLE11=Allie Louise - Hometown Christmas
TTITLE12=Josie Brandon - Let The Little Angels Whisper
TTITLE13=Marthia Sides - O Holy Night
TTITLE14=Olivia Lane - Rockin' Around The Christmas Tree (101016RA)
TTITLE15=Cody Joe Hodges - Tangled In the Christmas Lights
TTITLE16=Greg Sterling - That Better Be Santa Claus
TTITLE17=NewSong - The Christmas Shoes
EXTD=
EXTT0=
EXTT1=
EXTT2=
EXTT3=
EXTT4=
EXTT5=
EXTT6=
EXTT7=
EXTT8=
EXTT9=
EXTT10=
EXTT11=
EXTT12=
EXTT13=
EXTT14=
EXTT15=
EXTT16=
EXTT17=
PLAYORDER=
